<svg width="199" height="136" viewBox="0 0 199 136" fill="none" xmlns="http://www.w3.org/2000/svg">
<path d="M66.2196 9.48012L65.7761 8.34094C65.9174 8.68318 66.0588 9.03521 66.2001 9.38234C66.2001 9.41656 66.2098 9.4459 66.2147 9.48012H66.2196Z" fill="#231F20" stroke="#E983AE" stroke-miterlimit="10"/>
<path d="M66.205 9.38232C66.1221 8.9863 66.0247 8.59516 65.9028 8.21381C65.8687 8.25781 65.8249 8.29692 65.781 8.33604L66.2244 9.4801C66.2244 9.44588 66.2147 9.41654 66.2098 9.38232H66.205Z" fill="#F283B4"/>
<path fill-rule="evenodd" clip-rule="evenodd" d="M29.5013 97.5685L28.9994 98.9619L24.1995 112.28C25.7345 107.772 27.2695 103.245 28.9702 98.913C29.1456 98.4632 29.321 98.0134 29.5013 97.5685Z" fill="#5BC6CC"/>
<path fill-rule="evenodd" clip-rule="evenodd" d="M65.133 56.118C65.1086 56.1327 65.0843 56.1473 65.0648 56.1571L64.0658 53.3898L55.0068 28.2546C58.0525 36.5808 61.0933 44.956 64.134 53.3507C64.4654 54.2748 64.7968 55.194 65.133 56.118Z" fill="#5BC6CC"/>
<path fill-rule="evenodd" clip-rule="evenodd" d="M91.9492 75.5134C91.8907 75.5085 91.8322 75.5036 91.7738 75.4987C91.6617 75.2054 91.5496 74.9169 91.4375 74.6236C91.1744 73.9489 90.9161 73.279 90.6578 72.6043C88.426 66.8058 86.2088 61.0023 83.9964 55.194C83.5237 53.9423 83.051 52.6907 82.5735 51.444L84.05 55.238L90.8528 72.6972L91.4375 74.1982L91.9492 75.5134Z" fill="#5BC6CC"/>
<path fill-rule="evenodd" clip-rule="evenodd" d="M66.6387 10.5508C66.8337 11.514 66.936 12.5114 66.936 13.5332C66.936 20.7839 61.8193 26.8367 55.0068 28.2546C54.9191 28.2741 54.8314 28.2937 54.7437 28.3083C54.6559 28.2937 54.5682 28.2741 54.4805 28.2546C52.0245 27.7461 49.7878 26.6314 47.936 25.0766C48.2479 24.0108 48.5647 22.9498 48.9009 21.8937C46.5034 20.5101 44.6467 18.2904 43.716 15.6356C43.4626 16.2027 43.2384 16.7845 43.0435 17.3615C42.7219 16.1392 42.5513 14.8582 42.5513 13.5332C42.5513 12.5212 42.6537 11.5336 42.8437 10.5802L22.8887 61.7846C22.8887 61.7846 22.8887 61.7992 22.8789 61.809L21.6704 64.9136C21.6704 64.9136 21.6704 64.9185 21.6704 64.9234L17.1628 76.4961C18.7076 72.5163 20.2475 68.5414 21.7873 64.5665C22.4728 62.7999 22.4728 62.7966 21.7873 64.5567C22.0943 63.7696 22.3965 62.9824 22.7035 62.1952C22.7035 62.1806 22.7181 62.1659 22.723 62.1512C29.3893 44.956 36.0605 27.7754 42.8486 10.5557C42.9802 9.90548 43.1507 9.26988 43.3603 8.65385C43.3798 8.68807 43.4041 8.72229 43.4285 8.75652C44.7442 3.71578 49.3102 0 54.7437 0C60.1771 0 64.4118 3.45176 65.9029 8.21382C65.8688 8.25782 65.8249 8.29694 65.7811 8.33605L66.2245 9.48012C66.2245 9.44589 66.2148 9.41656 66.2099 9.38233C66.1271 8.98631 66.0296 8.59518 65.9078 8.21382C65.9273 8.19915 65.9419 8.1796 65.9565 8.16493C66.2245 8.87386 66.4438 9.60724 66.6046 10.3651C72.1453 24.0792 77.374 37.7787 82.5735 51.4439L66.6436 10.5508H66.6387Z" fill="#5BC6CC"/>
<path fill-rule="evenodd" clip-rule="evenodd" d="M17.1579 76.4961C12.1435 89.4231 7.11455 102.36 2.03198 115.331L17.1579 76.4961Z" fill="#5BC6CC"/>
<path fill-rule="evenodd" clip-rule="evenodd" d="M24.1995 112.28C22.9276 116.02 21.6558 119.746 20.2962 123.339C19.4239 128.121 15.2526 131.744 10.2334 131.744C4.58065 131.744 0 127.148 0 121.477C0 119.179 0.750447 117.057 2.02231 115.345V115.336H2.03205C3.89843 112.828 6.87585 111.209 10.2334 111.209C15.8861 111.209 20.4667 115.805 20.4667 121.477C20.4667 121.965 20.4326 122.449 20.3644 122.919L24.1995 112.28Z" fill="#5BC6CC"/>
<path fill-rule="evenodd" clip-rule="evenodd" d="M54.4806 28.2546L45.7968 52.3436L45.1682 54.0939C45.368 53.5072 45.5678 52.9205 45.7725 52.3338C48.5696 44.1297 51.3229 36.3608 54.4806 28.2546Z" fill="#5BC6CC"/>
<path fill-rule="evenodd" clip-rule="evenodd" d="M66.2196 9.4801L65.7761 8.34092C65.82 8.29692 65.8638 8.25781 65.8979 8.21381C66.0198 8.59516 66.1172 8.9863 66.2001 9.38232C66.2001 9.41654 66.2098 9.44588 66.2147 9.4801H66.2196Z" fill="#E981AD"/>
<path d="M28.9701 98.9129C27.2694 103.245 25.7344 107.772 24.1994 112.28L20.3643 122.919C20.4326 122.449 20.4667 121.965 20.4667 121.476C20.4667 115.805 15.886 111.209 10.2333 111.209C6.87578 111.209 3.89835 112.828 2.03198 115.331C7.11455 102.36 12.1435 89.423 17.1579 76.496L21.6654 64.9233C20.798 67.6906 20.3059 70.8392 20.3059 74.3595C20.3059 82.2897 23.6098 90.3031 28.9701 98.9129Z" fill="#5BC6CC"/>
<path d="M54.4805 28.2546C51.3228 36.3608 48.5695 44.1297 45.7724 52.3338C43.5601 51.3119 41.2356 50.8084 38.9209 50.8084C32.5421 50.8084 26.2803 54.6121 22.8887 61.7846L42.8437 10.5802C42.6537 11.5336 42.5514 12.5212 42.5514 13.5333C42.5514 14.8582 42.7219 16.1392 43.0435 17.3615C43.2385 16.7846 43.4626 16.2028 43.716 15.6356C44.6468 18.2904 46.5034 20.5101 48.9009 21.8938C48.5647 22.9498 48.2479 24.0108 47.9361 25.0766C49.7878 26.6314 52.0245 27.7461 54.4805 28.2546Z" fill="#5BC6CC"/>
<path d="M83.9916 55.189C80.7706 52.324 76.8283 50.8475 72.8421 50.8475C69.8696 50.8475 66.8775 51.6688 64.134 53.3507C61.0933 44.956 58.0525 36.5808 55.0068 28.2546C61.8193 26.8367 66.936 20.7839 66.936 13.5332C66.936 12.5114 66.8337 11.514 66.6388 10.5508L82.5687 51.4439C83.0463 52.6907 83.5189 53.9423 83.9916 55.189Z" fill="#5BC6CC"/>
<path d="M91.4376 74.1982V74.6235C91.4376 74.8973 91.4229 75.1662 91.4132 75.4351C91.189 75.3471 90.9502 75.2836 90.7017 75.2494C90.2144 75.1907 89.6979 75.2689 89.1911 75.4351C88.889 75.44 88.6502 75.4791 88.4455 75.528C88.465 75.1369 88.4747 74.7458 88.4747 74.3595C88.4747 73.4012 88.4358 72.4772 88.3529 71.5922C85.1562 70.3895 81.2237 69.7197 76.3848 69.9299C53.2037 70.942 50.2702 98.7467 50.2702 98.7467C50.2702 98.7467 49.0032 116.622 57.9744 126.493C58.5154 125.813 59.0514 125.139 59.5874 124.469C59.7482 125.393 60.8447 125.989 61.7998 125.701C61.9557 125.931 62.175 126.107 62.4235 126.229C61.7559 127.065 61.0834 127.911 60.4061 128.761C58.9149 130.634 57.4043 132.546 55.8693 134.496C45.3582 121.105 35.617 109.581 28.9994 98.9619C28.9897 98.9423 28.9799 98.9276 28.9702 98.913C23.6098 90.3031 20.3059 82.2898 20.3059 74.3595C20.3059 70.8393 20.7981 67.6907 21.6655 64.9234C22.0521 63.6946 22.0521 63.6913 21.6655 64.9136C21.7045 64.8012 21.7435 64.6789 21.7776 64.5665C21.8019 64.4932 21.8019 64.4883 21.7776 64.5567C22.0505 63.7353 22.3575 62.9482 22.6937 62.1952C22.6937 62.1806 22.7083 62.1659 22.7132 62.1512C22.7668 62.0339 22.8155 61.9215 22.8691 61.809C22.8691 61.7992 22.8789 61.7943 22.8789 61.7846C26.2705 54.6121 32.5323 50.8083 38.9111 50.8083C41.2258 50.8083 43.5503 51.3119 45.7626 52.3338C45.7724 52.3338 45.7821 52.3338 45.787 52.3436C49.7926 54.2014 53.4133 57.7657 55.8595 63.1633C57.916 58.6457 60.8057 55.4091 64.056 53.3898C64.0804 53.3801 64.1047 53.3654 64.1242 53.3507C66.8677 51.6688 69.8598 50.8475 72.8323 50.8475C76.8185 50.8475 80.7607 52.324 83.9818 55.1891C83.9818 55.1891 84.0159 55.2184 84.0305 55.2379C88.1629 58.9391 91.0964 64.9332 91.3937 73.0052C91.4083 73.3964 91.4181 73.7924 91.4181 74.1982H91.4376Z" fill="#AE275F"/>
<path d="M96.949 117.37L101.934 117.492C96.1108 139.293 72.0283 137.826 60.4061 128.761C59.5192 128.072 58.7103 127.309 57.9745 126.493C49.0032 116.622 50.2702 98.7467 50.2702 98.7467C50.2702 98.7467 53.2038 70.9419 76.3848 69.9299C81.2237 69.7196 85.1562 70.3895 88.3529 71.5922C89.1716 71.8953 89.9367 72.2327 90.6579 72.6043C90.7261 72.6336 90.7895 72.6678 90.8528 72.6972C91.0429 72.7998 91.228 72.9025 91.4132 73.0052C100.75 78.2317 102.022 88.2105 102.022 88.2105H97.1293C92.6022 78.4615 89.542 75.0488 77.9539 74.5257C66.361 74.0026 57.4725 82.8324 55.8693 99.1818C54.271 115.531 61.3612 129.47 77.0816 130.658C92.802 131.846 96.949 117.37 96.949 117.37Z" fill="#5BC6CC"/>
<path d="M105.394 120.445C105.394 120.2 105.404 119.98 105.409 119.785L105.394 120.445Z" fill="#CD5E9D"/>
<path d="M137.239 126.283C130.724 129.646 131.046 122.303 131.046 122.303L130.704 102.942C128.989 97.544 125.213 95.3634 119.648 95.0896C114.083 94.8207 106.383 100.869 106.383 100.869C106.383 100.869 100.263 105.005 104.955 107.073C109.648 109.141 110.36 105.865 110.36 105.865C110.36 105.865 111.134 99.3823 117.776 99.2846C124.413 99.1868 123.624 109.342 123.624 109.342C119.516 112.182 114.453 112.93 109.078 114.881C103.698 116.837 103.186 120.968 103.186 120.968C102.904 133.484 115.257 132.79 115.257 132.79L123.916 127.686C126.051 133.714 130.461 132.79 130.461 132.79L138.116 128.473L137.239 126.283ZM123.624 124.992C123.624 124.992 119.492 128.546 115.944 127.397C112.396 126.248 109.307 121.887 112.967 117.521L123.624 112.202V124.992Z" fill="#5BC6CC"/>
<path d="M139.91 98.8152V100.668C139.91 100.668 144.739 100.839 144.968 102.79C145.197 104.741 144.968 126.581 144.968 126.581C144.968 126.581 144.997 129.48 142.102 129.886L139.208 130.292V132.482H159.952V130.292C159.952 130.292 156.619 130.155 154.806 129.549C152.994 128.942 152.657 126.312 152.721 123.144C152.784 119.976 152.765 109.254 152.765 109.254C152.765 109.254 156.302 102.018 159.485 102.467C162.667 102.917 163.281 104.149 163.281 104.149C163.281 104.149 164.884 105.205 166.633 103.724C168.383 102.242 168.919 100.595 168.446 98.82C167.973 97.0453 165.22 95.4954 162.262 95.7643C159.304 96.0332 152.35 104.125 152.935 104.599L152.76 95.4563" fill="#5BC6CC"/>
<path d="M187.626 95.5835C188.538 95.7497 189.186 95.9257 189.434 95.9942C188.864 95.8084 188.26 95.6715 187.626 95.5835Z" fill="#5BC6CC"/>
<path d="M199 123.32C198.888 123.481 198.761 123.657 198.625 123.853L199 123.32Z" fill="#5BC6CC"/>
<path d="M198.152 108.178C198.264 105.939 195.954 98.1551 189.546 96.0283C189.546 96.0283 189.507 96.0185 189.434 95.9941C189.186 95.9256 188.538 95.7496 187.626 95.5834C185.287 95.1678 181.218 94.8353 177.851 96.6248H177.861C176.253 97.3337 174.528 98.4582 172.881 100.218C172.856 100.248 172.832 100.272 172.808 100.297C172.642 100.482 172.476 100.668 172.315 100.859C166.663 107.581 166.312 117.536 166.312 117.536C166.974 121.848 169.962 133.044 183.133 133.255C183.133 133.255 192.797 132.022 197.801 125.006L196.339 123.212C196.339 123.212 183.372 132.634 176.224 121.638L176.214 121.628C176.155 121.56 175.751 121.08 175.273 120.181C175.268 120.171 175.264 120.161 175.259 120.156C174.474 118.655 173.499 116.015 173.607 112.216L196.105 110.813C196.105 110.813 198.011 110.901 198.152 108.178ZM188.099 108.51L174.016 108.681C174.016 108.681 176.224 97.9693 182.783 98.6391C189.342 99.3089 189.917 104.995 190.146 106.941C190.37 108.892 188.099 108.51 188.099 108.51Z" fill="#5BC6CC"/>
</svg>
