<svg width="78" height="80" viewBox="0 0 78 80" fill="none" xmlns="http://www.w3.org/2000/svg">
<g clip-path="url(#clip0_259_2316)">
<path d="M9.32561 79.5541L58.8709 56.4648L23.4694 20.8818L0.497137 70.6586C0.167381 71.4536 -1.08362 74.6544 2.32002 77.6999C6.0096 80.9887 8.53465 79.8855 9.32561 79.5541Z" fill="url(#paint0_linear_259_2316)"/>
<path d="M18.5058 31.6313L14.8162 39.6878C13.6297 42.5792 34.6696 63.9243 46.5512 62.2034L58.8721 56.4647C44.2671 63.2417 16.7059 35.5611 18.5069 31.6313H18.5058Z" fill="url(#paint1_linear_259_2316)"/>
<path d="M11.0385 47.8774L10.1819 49.7096L7.28323 55.9779C7.26132 58.4498 19.9327 71.1649 27.8619 70.8995L37.9206 66.22C27.0271 68.1182 9.78753 50.5475 11.0397 47.8774H11.0385Z" fill="url(#paint2_linear_259_2316)"/>
<path d="M0.737793 70.1728C1.79163 72.2924 6.95358 77.4574 11.2358 78.6708L21.8652 73.7259L21.931 73.6819C15.3866 76.7053 4.31784 65.4922 4.11952 62.8882L0.737793 70.1728Z" fill="url(#paint3_linear_259_2316)"/>
<path opacity="0.75" d="M9.32561 79.5541L58.8709 56.4648L23.4694 20.8818L0.497137 70.6586C0.167381 71.4536 -1.08362 74.6544 2.32002 77.6999C6.0096 80.9887 8.53465 79.8855 9.32561 79.5541Z" fill="url(#paint4_radial_259_2316)"/>
<path opacity="0.75" d="M9.32561 79.5541L58.8709 56.4648L23.4694 20.8818L0.497137 70.6586C0.167381 71.4536 -1.08362 74.6544 2.32002 77.6999C6.0096 80.9887 8.53465 79.8855 9.32561 79.5541Z" fill="url(#paint5_radial_259_2316)"/>
<path d="M40.4019 21.0576C39.8093 22.2721 38.6448 22.4482 37.7881 22.1828L39.1936 19.3795C39.1936 19.3795 40.7743 19.733 40.8193 18.6958L40.885 20.1525L40.4019 21.0576Z" fill="url(#paint6_linear_259_2316)"/>
<path d="M44.3338 5.60659C44.3338 5.60659 45.3438 5.14305 45.9802 3.81846C46.6178 2.49388 43.4771 0 43.4771 0L42.0059 2.58311C42.0059 2.58311 44.4871 4.21711 43.7192 4.76873C42.9283 5.32035 44.3338 5.60775 44.3338 5.60775V5.60659Z" fill="url(#paint7_linear_259_2316)"/>
<path d="M70.0282 26.8419C70.4894 22.78 67.766 21.4334 66.7779 21.5447C66.7779 21.5447 66.6015 20.2201 68.3586 19.8006C69.522 19.5352 72.4875 22.1844 71.7185 25.187L70.027 26.843L70.0282 26.8419Z" fill="url(#paint8_linear_259_2316)"/>
<path d="M59.2895 56.1563C56.8301 58.6281 46.9029 52.624 37.0863 42.7795C27.2916 32.9349 21.3179 22.9351 23.7773 20.4632C26.2366 17.9913 36.1639 23.9954 45.9805 33.84C55.7751 43.7066 61.7269 53.6844 59.2895 56.1563Z" fill="url(#paint9_linear_259_2316)"/>
<path d="M58.4545 54.5213C56.5878 56.3975 47.6717 50.4815 38.5573 41.2998C29.4429 32.117 23.5349 23.1775 25.4016 21.3013C27.2683 19.4251 36.1844 25.3411 45.2988 34.5239C54.4132 43.7068 60.32 52.6463 58.4533 54.5225L58.4545 54.5213Z" fill="url(#paint10_linear_259_2316)"/>
<path d="M45.9584 3.81982C45.9584 3.81982 44.8169 6.26967 44.6624 6.53505C44.0917 7.50618 42.4878 7.83761 39.6111 7.44012C36.7344 7.04263 35.8996 7.19676 35.7682 7.21994C35.6368 7.26397 33.9453 5.89535 33.9453 5.89535L34.0987 4.50471C34.0987 4.50471 34.4941 3.97511 35.812 4.15126C38.1618 4.50471 45.0798 5.67401 45.9584 3.81982Z" fill="url(#paint11_linear_259_2316)"/>
<path d="M51.6679 44.8088C53.9739 42.1596 56.1265 44.2351 57.487 42.3369L55.1591 39.9531C53.7974 41.8293 51.8212 40.0632 49.3838 42.6463L51.6679 44.8099V44.8088Z" fill="url(#paint12_linear_259_2316)"/>
<path d="M26.6538 12.671C29.8384 14.5692 27.0055 17.1743 28.8064 18.653L31.2877 16.4234C29.4867 14.9447 32.0786 12.3836 28.8941 10.4854L26.6538 12.671Z" fill="url(#paint13_linear_259_2316)"/>
<path d="M60.3648 22.4926C60.4524 22.4706 60.4962 21.941 61.7922 21.0139C63.0882 20.0868 66.0087 21.5215 66.3823 21.7428C66.7777 21.963 66.448 25.6053 66.448 25.6053C66.448 25.6053 62.8022 21.6988 60.9793 22.6039C59.1565 23.4869 60.3648 22.4938 60.3648 22.4938V22.4926Z" fill="url(#paint14_linear_259_2316)"/>
<path d="M60.848 31.5651C60.848 31.5651 60.7165 32.9998 60.057 33.6615C58.8706 34.8319 56.982 33.0658 54.5884 33.7055C54.5884 33.7055 55.686 30.9022 55.7967 30.682C55.7967 30.682 56.7629 30.0864 57.751 30.66C58.7611 31.2116 59.6396 31.3889 60.2542 31.0575C60.8687 30.7261 60.8468 31.5651 60.8468 31.5651H60.848Z" fill="url(#paint15_linear_259_2316)"/>
<path d="M67.283 25.2516C67.283 25.2516 64.9332 26.3328 64.6254 26.4881C64.3175 26.6434 63.6153 21.1457 65.3068 20.5941C67.0201 20.0425 68.1835 19.8432 68.3599 19.8211C68.5352 19.7771 65.4175 20.1085 67.2842 25.2516H67.283Z" fill="#FFBF00"/>
<path d="M60.0573 33.6396C61.0236 32.6244 62.3414 31.1237 62.2757 30.7042C61.9679 28.011 59.7945 22.0729 61.7926 20.9917C61.7926 20.9917 59.9259 22.3163 59.3552 22.7138C58.7844 23.1113 58.3671 24.1705 58.4109 25.9146C58.5204 28.9612 60.9359 32.7356 60.0573 33.6407V33.6396Z" fill="#FFBF00"/>
<path d="M53.3812 11.853C51.7785 23.1763 40.5991 33.9932 40.5991 33.9932L42.1142 36.3109C42.1142 36.3109 54.2805 23.575 55.8405 12.2065L53.3812 11.853Z" fill="url(#paint16_linear_259_2316)"/>
<path d="M32.759 7.12954C32.495 7.61511 33.264 8.43211 35.1088 10.6838C36.9536 12.9355 41.742 18.8955 40.3803 21.058L41.8515 18.0113C41.8515 18.0113 41.8734 15.5835 40.4241 13.2217C38.14 9.51333 33.7702 5.51756 34.0988 4.52441L32.759 7.12954Z" fill="url(#paint17_linear_259_2316)"/>
<path d="M42.5533 41.586C43.0503 41.586 43.4538 41.1804 43.4538 40.681C43.4538 40.1815 43.0503 39.7759 42.5533 39.7759C42.0564 39.7759 41.6528 40.1815 41.6528 40.681C41.6528 41.1804 42.0564 41.586 42.5533 41.586Z" fill="url(#paint18_linear_259_2316)"/>
<path d="M55.0948 3.97372C55.5918 3.97372 55.9953 3.56812 55.9953 3.06865C55.9953 2.56918 55.5918 2.16357 55.0948 2.16357C54.5979 2.16357 54.1943 2.56918 54.1943 3.06865C54.1943 3.56812 54.5979 3.97372 55.0948 3.97372Z" fill="url(#paint19_linear_259_2316)"/>
<path d="M46.6388 17.107C47.1357 17.107 47.5393 16.7014 47.5393 16.2019C47.5393 15.7025 47.1357 15.2969 46.6388 15.2969C46.1418 15.2969 45.7383 15.7025 45.7383 16.2019C45.7383 16.7014 46.1418 17.107 46.6388 17.107Z" fill="url(#paint20_linear_259_2316)"/>
<path d="M51.9757 33.6847C52.4726 33.6847 52.8762 33.2791 52.8762 32.7796C52.8762 32.2801 52.4726 31.8745 51.9757 31.8745C51.4787 31.8745 51.0752 32.2801 51.0752 32.7796C51.0752 33.2791 51.4787 33.6847 51.9757 33.6847Z" fill="url(#paint21_linear_259_2316)"/>
<path d="M75.1231 31.4771C75.6201 31.4771 76.0236 31.0715 76.0236 30.5721C76.0236 30.0726 75.6201 29.667 75.1231 29.667C74.6262 29.667 74.2227 30.0726 74.2227 30.5721C74.2227 31.0715 74.6262 31.4771 75.1231 31.4771Z" fill="url(#paint22_linear_259_2316)"/>
<path d="M69.3917 50.5719C69.8886 50.5719 70.2922 50.1663 70.2922 49.6668C70.2922 49.1673 69.8886 48.7617 69.3917 48.7617C68.8948 48.7617 68.4912 49.1673 68.4912 49.6668C68.4912 50.1663 68.8948 50.5719 69.3917 50.5719Z" fill="url(#paint23_linear_259_2316)"/>
<path d="M65.6363 38.9146C66.1333 38.9146 66.5368 38.509 66.5368 38.0096C66.5368 37.5101 66.1333 37.1045 65.6363 37.1045C65.1394 37.1045 64.7358 37.5101 64.7358 38.0096C64.7358 38.509 65.1394 38.9146 65.6363 38.9146Z" fill="url(#paint24_linear_259_2316)"/>
<path d="M70.5772 14.3272C71.0742 14.3272 71.4777 13.9216 71.4777 13.4222C71.4777 12.9227 71.0742 12.5171 70.5772 12.5171C70.0803 12.5171 69.6768 12.9227 69.6768 13.4222C69.6768 13.9216 70.0803 14.3272 70.5772 14.3272Z" fill="url(#paint25_linear_259_2316)"/>
<path d="M60.4747 17.2843C60.9716 17.2843 61.3752 16.8787 61.3752 16.3792C61.3752 15.8797 60.9716 15.4741 60.4747 15.4741C59.9778 15.4741 59.5742 15.8797 59.5742 16.3792C59.5742 16.8787 59.9778 17.2843 60.4747 17.2843Z" fill="url(#paint26_linear_259_2316)"/>
<path d="M52.7654 53.0435C61.9456 45.4726 77.4937 43.9047 77.4937 43.9047L77.9987 40.4165C77.9987 40.4165 59.5946 42.6241 49.8438 51.1221C50.8976 51.851 51.8638 52.4907 52.7643 53.0423L52.7654 53.0435Z" fill="url(#paint27_linear_259_2316)"/>
<path d="M29.7287 31.2337C30.3432 32.0727 31.0247 32.9117 31.7487 33.7948C33.7031 29.4687 33.2857 26.0686 33.2857 26.0686L30.8921 24.5679C31.133 27.2391 30.3213 29.799 29.7275 31.2337H29.7287Z" fill="url(#paint28_linear_259_2316)"/>
</g>
<defs>
<linearGradient id="paint0_linear_259_2316" x1="-2.17013" y1="28.1571" x2="37.2606" y2="74.6573" gradientUnits="userSpaceOnUse">
<stop offset="0.25" stop-color="#FBE07A"/>
<stop offset="1" stop-color="#FF40BF"/>
</linearGradient>
<linearGradient id="paint1_linear_259_2316" x1="19.1197" y1="31.5946" x2="51.8345" y2="64.1051" gradientUnits="userSpaceOnUse">
<stop offset="0.25" stop-color="#9F00E8"/>
<stop offset="1" stop-color="#7000A3"/>
</linearGradient>
<linearGradient id="paint2_linear_259_2316" x1="10.1268" y1="49.362" x2="32.7994" y2="71.9197" gradientUnits="userSpaceOnUse">
<stop offset="0.25" stop-color="#9F00E8"/>
<stop offset="1" stop-color="#7000A3"/>
</linearGradient>
<linearGradient id="paint3_linear_259_2316" x1="3.28651" y1="64.2712" x2="17.6546" y2="78.5281" gradientUnits="userSpaceOnUse">
<stop offset="0.25" stop-color="#9F00E8"/>
<stop offset="1" stop-color="#7000A3"/>
</linearGradient>
<radialGradient id="paint4_radial_259_2316" cx="0" cy="0" r="1" gradientUnits="userSpaceOnUse" gradientTransform="translate(19.3158 43.9653) rotate(119.475) scale(22.5885 6.89765)">
<stop stop-color="white" stop-opacity="0.5"/>
<stop offset="1" stop-color="white" stop-opacity="0"/>
</radialGradient>
<radialGradient id="paint5_radial_259_2316" cx="0" cy="0" r="1" gradientUnits="userSpaceOnUse" gradientTransform="translate(34.9314 63.7978) rotate(151.578) scale(35.7111 11.1691)">
<stop stop-color="#440063" stop-opacity="0.75"/>
<stop offset="1" stop-color="#420061" stop-opacity="0"/>
</radialGradient>
<linearGradient id="paint6_linear_259_2316" x1="40.7935" y1="20.5862" x2="46.1787" y2="18.864" gradientUnits="userSpaceOnUse">
<stop stop-color="#BD2719"/>
<stop offset="1" stop-color="#FF4E0D"/>
</linearGradient>
<linearGradient id="paint7_linear_259_2316" x1="45.8278" y1="7.10624" x2="43.3856" y2="1.08935" gradientUnits="userSpaceOnUse">
<stop stop-color="#BD2719"/>
<stop offset="1" stop-color="#FF4E0D"/>
</linearGradient>
<linearGradient id="paint8_linear_259_2316" x1="72.6514" y1="25.5306" x2="63.6324" y2="19.7785" gradientUnits="userSpaceOnUse">
<stop stop-color="#FFCB4B"/>
<stop offset="1" stop-color="#E81CA2"/>
</linearGradient>
<linearGradient id="paint9_linear_259_2316" x1="49.6326" y1="13.711" x2="29.3478" y2="77.3056" gradientUnits="userSpaceOnUse">
<stop offset="0.25" stop-color="#FBE07A"/>
<stop offset="1" stop-color="#E81CA2"/>
</linearGradient>
<linearGradient id="paint10_linear_259_2316" x1="56.2038" y1="28.3501" x2="25.2805" y2="49.9097" gradientUnits="userSpaceOnUse">
<stop stop-color="#FBE07A"/>
<stop offset="1" stop-color="white"/>
</linearGradient>
<linearGradient id="paint11_linear_259_2316" x1="31.4169" y1="6.25669" x2="41.3701" y2="6.10375" gradientUnits="userSpaceOnUse">
<stop stop-color="#BD2719"/>
<stop offset="1" stop-color="#FF4E0D"/>
</linearGradient>
<linearGradient id="paint12_linear_259_2316" x1="54.8202" y1="40.7487" x2="52.419" y2="45.0643" gradientUnits="userSpaceOnUse">
<stop stop-color="#FF9214"/>
<stop offset="1" stop-color="#FF4E0D"/>
</linearGradient>
<linearGradient id="paint13_linear_259_2316" x1="26.8438" y1="7.56967" x2="30.5278" y2="17.9867" gradientUnits="userSpaceOnUse">
<stop stop-color="#80DAFE"/>
<stop offset="1" stop-color="#008EE6"/>
</linearGradient>
<linearGradient id="paint14_linear_259_2316" x1="63.851" y1="27.8094" x2="63.0358" y2="17.304" gradientUnits="userSpaceOnUse">
<stop stop-color="#FFCB4B"/>
<stop offset="1" stop-color="#E81CA2"/>
</linearGradient>
<linearGradient id="paint15_linear_259_2316" x1="55.0892" y1="32.251" x2="60.855" y2="33.1689" gradientUnits="userSpaceOnUse">
<stop stop-color="#FFCB4B"/>
<stop offset="1" stop-color="#E81CA2"/>
</linearGradient>
<linearGradient id="paint16_linear_259_2316" x1="51.131" y1="12.5911" x2="42.4787" y2="47.9901" gradientUnits="userSpaceOnUse">
<stop offset="0.25" stop-color="#E100FF"/>
<stop offset="1" stop-color="#7000A3"/>
</linearGradient>
<linearGradient id="paint17_linear_259_2316" x1="34.2608" y1="6.79744" x2="40.6491" y2="17.3907" gradientUnits="userSpaceOnUse">
<stop stop-color="#FF9214"/>
<stop offset="1" stop-color="#FF4E0D"/>
</linearGradient>
<linearGradient id="paint18_linear_259_2316" x1="41.0624" y1="35.9206" x2="44.5139" y2="46.0297" gradientUnits="userSpaceOnUse">
<stop stop-color="#FFCB4B"/>
<stop offset="1" stop-color="#E81CA2"/>
</linearGradient>
<linearGradient id="paint19_linear_259_2316" x1="52.5916" y1="-1.12092" x2="58.244" y2="8.16225" gradientUnits="userSpaceOnUse">
<stop stop-color="#FBE07A"/>
<stop offset="1" stop-color="#E81CA2"/>
</linearGradient>
<linearGradient id="paint20_linear_259_2316" x1="46.7503" y1="16.0285" x2="48.147" y2="21.3939" gradientUnits="userSpaceOnUse">
<stop stop-color="#80DAFE"/>
<stop offset="1" stop-color="#008EE6"/>
</linearGradient>
<linearGradient id="paint21_linear_259_2316" x1="51.5921" y1="31.4013" x2="52.484" y2="33.8704" gradientUnits="userSpaceOnUse">
<stop stop-color="#80DAFE"/>
<stop offset="1" stop-color="#008EE6"/>
</linearGradient>
<linearGradient id="paint22_linear_259_2316" x1="75.9947" y1="28.8135" x2="74.3657" y2="33.9459" gradientUnits="userSpaceOnUse">
<stop stop-color="#FFCB4B"/>
<stop offset="1" stop-color="#E81CA2"/>
</linearGradient>
<linearGradient id="paint23_linear_259_2316" x1="69.3465" y1="44.225" x2="69.8512" y2="55.2329" gradientUnits="userSpaceOnUse">
<stop stop-color="#FFCB4B"/>
<stop offset="1" stop-color="#E81CA2"/>
</linearGradient>
<linearGradient id="paint24_linear_259_2316" x1="65.2729" y1="36.6543" x2="66.1261" y2="39.1236" gradientUnits="userSpaceOnUse">
<stop offset="0.25" stop-color="#9F00E8"/>
<stop offset="1" stop-color="#7000A3"/>
</linearGradient>
<linearGradient id="paint25_linear_259_2316" x1="72.5364" y1="10.7372" x2="69.2062" y2="16.4776" gradientUnits="userSpaceOnUse">
<stop stop-color="#80DAFE"/>
<stop offset="1" stop-color="#008EE6"/>
</linearGradient>
<linearGradient id="paint26_linear_259_2316" x1="60.4696" y1="15.449" x2="61.595" y2="21.5884" gradientUnits="userSpaceOnUse">
<stop stop-color="#FF9214"/>
<stop offset="1" stop-color="#FF4E0D"/>
</linearGradient>
<linearGradient id="paint27_linear_259_2316" x1="43.8294" y1="46.6195" x2="75.9179" y2="47.2695" gradientUnits="userSpaceOnUse">
<stop stop-color="#80DAFE"/>
<stop offset="1" stop-color="#008EE6"/>
</linearGradient>
<linearGradient id="paint28_linear_259_2316" x1="26.152" y1="43.0274" x2="33.9053" y2="23.8581" gradientUnits="userSpaceOnUse">
<stop stop-color="#FBE07A"/>
<stop offset="1" stop-color="#E81CA2"/>
</linearGradient>
<clipPath id="clip0_259_2316">
<rect width="78" height="80" fill="white"/>
</clipPath>
</defs>
</svg>
